<svg xmlns="http://www.w3.org/2000/svg" width="426.969" height="275.594" style="zoom:1"><g transform="translate(-226.94 -529.295)"><rect x="243.939" style="marker:none" width="183.369" height="226.806" y="544.232" fill="#ededed" stroke="#000" stroke-linecap="round" stroke-linejoin="round" stroke-width=".974" color="#000" overflow="visible" ry=".081"/><path fill="none" stroke="#000" stroke-linecap="round" stroke-linejoin="round" d="M269.837 749.304V721.45"/><path style="marker:none" d="M269.963 718.019l1.531 2.651 1.531 2.652h-6.124l1.531-2.652z" color="#000" overflow="visible"/><text x="264.155" y="559.913" style="text-align:center;line-height:125%" font-family="Helvetica" font-size="10" font-weight="400" letter-spacing="0" text-anchor="middle" word-spacing="0"><tspan style="-inkscape-font-specification:Helvetica Bold" x="264.155" y="559.913" font-weight="700">区块</tspan></text><rect width="131.306" height="71.202" x="286.385" y="554.849" overflow="visible" ry=".091" style="marker:none" fill="#666" color="#000"/><rect width="131.306" height="71.202" x="286.385" y="552.849" stroke="#000" stroke-linecap="round" overflow="visible" ry=".091" style="marker:none" fill="#dfedff" stroke-linejoin="round" stroke-width="1.014" color="#000"/><text x="351.472" y="565.953" style="text-align:center;line-height:125%" font-family="Helvetica" font-size="10" font-weight="400" letter-spacing="0" text-anchor="middle" word-spacing="0"><tspan style="-inkscape-font-specification:Helvetica Bold" x="351.472" y="565.953" font-size="8" font-weight="700">区块头(区块哈希)</tspan></text><rect style="marker:none" width="60.698" height="19.03" x="297.633" y="574.642" fill="#fff" stroke="#000" stroke-linecap="round" stroke-linejoin="round" stroke-width=".5" color="#000" overflow="visible" ry=".478"/><text style="line-height:125%" x="328.088" y="587.818" font-family="Helvetica" font-size="10" font-weight="400" letter-spacing="0" word-spacing="0"><tspan x="328.088" y="587.818" style="text-align:center" text-anchor="middle">前哈希</tspan></text><rect style="marker:none" width="36.596" height="19.171" x="362.776" y="574.571" fill="#fff" stroke="#000" stroke-linecap="round" stroke-linejoin="round" stroke-width=".5" color="#000" overflow="visible" ry=".482"/><text style="line-height:125%" x="380.674" y="587.818" font-family="Helvetica" font-size="10" font-weight="400" letter-spacing="0" word-spacing="0"><tspan x="380.674" y="587.818" style="text-align:center" text-anchor="middle">随机数</tspan></text><rect style="marker:none" width="60.698" height="19.03" x="319.352" y="598.885" fill="#fff" stroke="#000" stroke-linecap="round" stroke-linejoin="round" stroke-width=".5" color="#000" overflow="visible" ry=".478"/><text style="line-height:125%" x="348.291" y="612.062" font-family="Helvetica" font-size="10" font-weight="400" letter-spacing="0" word-spacing="0"><tspan x="348.291" y="612.062" style="text-align:center" text-anchor="middle">根哈希</tspan></text><path fill="none" stroke="#000" stroke-linecap="round" stroke-linejoin="round" d="M294.002 656.49l37.377-36.326"/><path style="marker:none" d="M334 617.948l-.93 2.918-.929 2.917-2.062-2.264-2.062-2.263 2.992-.654z" color="#000" overflow="visible"/><rect style="marker:none" width="42.116" height="19.135" x="270.092" y="652.876" fill="#fff" stroke="#000" stroke-dasharray="1.8 1.8" stroke-linecap="round" stroke-linejoin="round" stroke-width=".6" color="#000" overflow="visible" ry=".481"/><path fill="none" stroke="#000" stroke-linecap="round" stroke-linejoin="round" d="M383.921 665.71l-25.248-45.597"/><path style="marker:none" d="M356.807 617.232l.044 3.062.044 3.061 2.63-1.569 2.629-1.569-2.674-1.492z" color="#000" overflow="visible"/><text style="line-height:125%" x="291.508" y="666.105" font-family="Helvetica" font-size="10" font-weight="400" letter-spacing="0" word-spacing="0"><tspan x="291.508" y="666.105" style="text-align:center" text-anchor="middle">哈希01</tspan></text><rect style="marker:none" width="42.116" height="19.135" x="359.511" y="652.876" fill="#fff" stroke="#000" stroke-dasharray="1.8 1.8" stroke-linecap="round" stroke-linejoin="round" stroke-width=".6" color="#000" overflow="visible" ry=".481"/><text style="line-height:125%" x="380.927" y="666.105" font-family="Helvetica" font-size="10" font-weight="400" letter-spacing="0" word-spacing="0"><tspan x="380.927" y="666.105" style="text-align:center" text-anchor="middle">哈希23</tspan></text><path fill="none" stroke="#000" stroke-linecap="round" stroke-linejoin="round" d="M269.77 700.187l11.924-25.175"/><path style="marker:none" d="M283.276 671.966l.248 3.052.249 3.052-2.767-1.31-2.767-1.312 2.518-1.74z" color="#000" overflow="visible"/><path fill="none" stroke="#000" stroke-linecap="round" stroke-linejoin="round" d="M313.273 700.187l-11.925-25.175"/><path style="marker:none" d="M299.766 671.966l-.248 3.052-.249 3.052 2.767-1.31 2.767-1.312-2.518-1.74z" color="#000" overflow="visible"/><rect style="marker:none" width="35.347" height="19.185" x="252.915" y="698.813" fill="#fff" stroke="#000" stroke-dasharray="1.651 1.651" stroke-linecap="round" stroke-linejoin="round" stroke-width=".55" color="#000" overflow="visible" ry=".482"/><text style="line-height:125%" x="271.072" y="712.067" font-family="Helvetica" font-size="10" font-weight="400" letter-spacing="0" word-spacing="0"><tspan x="271.072" y="712.067" style="text-align:center" text-anchor="middle">哈希0</tspan></text><path fill="none" stroke="#000" stroke-linecap="round" stroke-linejoin="round" d="M358.022 700.187l11.924-25.175"/><path style="marker:none" d="M371.529 671.966l.248 3.052.248 3.052-2.767-1.31-2.767-1.312 2.519-1.74z" color="#000" overflow="visible"/><path fill="none" stroke="#000" stroke-linecap="round" stroke-linejoin="round" d="M401.525 700.187l-11.924-25.175"/><path style="marker:none" d="M388.019 671.966l-.249 3.052-.248 3.052 2.767-1.31 2.767-1.312-2.519-1.74z" color="#000" overflow="visible"/><rect style="marker:none" width="35.347" height="19.185" x="296.351" y="698.813" fill="#fff" stroke="#000" stroke-dasharray="1.651 1.651" stroke-linecap="round" stroke-linejoin="round" stroke-width=".55" color="#000" overflow="visible" ry=".482"/><text style="line-height:125%" x="314.509" y="712.067" font-family="Helvetica" font-size="10" font-weight="400" letter-spacing="0" word-spacing="0"><tspan x="314.509" y="712.067" style="text-align:center" text-anchor="middle">哈希1</tspan></text><rect style="marker:none" width="35.347" height="19.185" x="340.04" y="698.813" fill="#fff" stroke="#000" stroke-dasharray="1.651 1.651" stroke-linecap="round" stroke-linejoin="round" stroke-width=".55" color="#000" overflow="visible" ry=".482"/><text style="line-height:125%" x="358.198" y="712.067" font-family="Helvetica" font-size="10" font-weight="400" letter-spacing="0" word-spacing="0"><tspan x="358.198" y="712.067" style="text-align:center" text-anchor="middle">哈希2</tspan></text><rect style="marker:none" width="35.347" height="19.185" x="383.729" y="698.813" fill="#fff" stroke="#000" stroke-dasharray="1.651 1.651" stroke-linecap="round" stroke-linejoin="round" stroke-width=".55" color="#000" overflow="visible" ry=".482"/><text style="line-height:125%" x="401.887" y="712.067" font-family="Helvetica" font-size="10" font-weight="400" letter-spacing="0" word-spacing="0"><tspan x="401.887" y="712.067" style="text-align:center" text-anchor="middle">哈希3</tspan></text><rect style="marker:none" width="35.347" height="19.185" x="252.915" y="742.813" fill="#fff" stroke="#000" stroke-linecap="round" stroke-linejoin="round" stroke-width=".55" color="#000" overflow="visible" ry=".482"/><text style="line-height:125%" x="271.072" y="756.067" font-family="Helvetica" font-size="10" font-weight="400" letter-spacing="0" word-spacing="0"><tspan x="271.072" y="756.067" style="text-align:center" text-anchor="middle">Tx0</tspan></text><path fill="none" stroke="#000" stroke-linecap="round" stroke-linejoin="round" d="M313.837 749.557v-27.856"/><path style="marker:none" d="M313.963 718.271l1.531 2.652 1.531 2.652h-6.124l1.531-2.652z" color="#000" overflow="visible"/><rect style="marker:none" width="35.347" height="19.185" x="296.351" y="742.813" fill="#fff" stroke="#000" stroke-linecap="round" stroke-linejoin="round" stroke-width=".55" color="#000" overflow="visible" ry=".482"/><text style="line-height:125%" x="314.509" y="756.067" font-family="Helvetica" font-size="10" font-weight="400" letter-spacing="0" word-spacing="0"><tspan x="314.509" y="756.067" style="text-align:center" text-anchor="middle">Tx1</tspan></text><g><path fill="none" stroke="#000" stroke-linecap="round" stroke-linejoin="round" d="M357.332 749.304V721.45"/><path style="marker:none" d="M357.458 718.019l1.531 2.651 1.531 2.652h-6.124l1.531-2.652z" color="#000" overflow="visible"/></g><rect style="marker:none" width="35.347" height="19.185" x="340.04" y="742.813" fill="#fff" stroke="#000" stroke-linecap="round" stroke-linejoin="round" stroke-width=".55" color="#000" overflow="visible" ry=".482"/><g><path fill="none" stroke="#000" stroke-linecap="round" stroke-linejoin="round" d="M400.827 749.304V721.45"/><path style="marker:none" d="M400.953 718.019l1.531 2.651 1.531 2.652h-6.124l1.531-2.652z" color="#000" overflow="visible"/></g><text style="line-height:125%" x="358.198" y="756.067" font-family="Helvetica" font-size="10" font-weight="400" letter-spacing="0" word-spacing="0"><tspan x="358.198" y="756.067" style="text-align:center" text-anchor="middle">Tx2</tspan></text><rect style="marker:none" width="35.347" height="19.185" x="383.729" y="742.813" fill="#fff" stroke="#000" stroke-linecap="round" stroke-linejoin="round" stroke-width=".55" color="#000" overflow="visible" ry=".482"/><text style="line-height:125%" x="401.887" y="756.067" font-family="Helvetica" font-size="10" font-weight="400" letter-spacing="0" word-spacing="0"><tspan x="401.887" y="756.067" style="text-align:center" text-anchor="middle">Tx3</tspan></text><text style="line-height:125%" x="336.169" y="788.839" font-family="Helvetica" font-size="10" font-weight="400" letter-spacing="0" word-spacing="0"><tspan x="336.169" y="788.839" style="text-align:center" text-anchor="middle">交易的哈希以 Merkle 树方式组织</tspan></text></g><g transform="translate(-155.22 -508.082)"><rect width="183.369" height="226.806" x="385.36" y="522.019" stroke="#000" stroke-linecap="round" overflow="visible" ry=".081" style="marker:none" fill="#ededed" stroke-linejoin="round" stroke-width=".974" color="#000"/><text x="405.576" y="538.7" style="text-align:center;line-height:125%" font-family="Helvetica" font-size="10" font-weight="400" letter-spacing="0" text-anchor="middle" word-spacing="0"><tspan style="-inkscape-font-specification:Helvetica Bold" x="405.576" y="538.7" font-weight="700">区块</tspan></text><rect width="131.306" height="71.202" x="427.807" y="533.636" overflow="visible" ry=".091" style="marker:none" fill="#666" color="#000"/><rect width="131.306" height="71.202" x="427.807" y="531.636" stroke="#000" stroke-linecap="round" overflow="visible" ry=".091" style="marker:none" fill="#dfedff" stroke-linejoin="round" stroke-width="1.014" color="#000"/><text x="492.894" y="544.74" style="text-align:center;line-height:125%" font-family="Helvetica" font-size="10" font-weight="400" letter-spacing="0" text-anchor="middle" word-spacing="0"><tspan y="544.74" style="-inkscape-font-specification:Helvetica Bold" x="492.894" font-size="8" font-weight="700">区块头(区块哈希)</tspan></text><rect style="marker:none" width="60.698" height="19.03" x="439.055" y="553.428" fill="#fff" stroke="#000" stroke-linecap="round" stroke-linejoin="round" stroke-width=".5" color="#000" overflow="visible" ry=".478"/><text style="line-height:125%" x="469.509" y="566.605" font-family="Helvetica" font-size="10" font-weight="400" letter-spacing="0" word-spacing="0"><tspan x="469.509" y="566.605" style="text-align:center" text-anchor="middle">前哈希</tspan></text><rect style="marker:none" width="36.596" height="19.171" x="504.197" y="553.358" fill="#fff" stroke="#000" stroke-linecap="round" stroke-linejoin="round" stroke-width=".5" color="#000" overflow="visible" ry=".482"/><text style="line-height:125%" x="522.095" y="566.605" font-family="Helvetica" font-size="10" font-weight="400" letter-spacing="0" word-spacing="0"><tspan x="522.095" y="566.605" style="text-align:center" text-anchor="middle">随机数</tspan></text><rect style="marker:none" width="60.698" height="19.03" x="460.773" y="577.672" fill="#fff" stroke="#000" stroke-linecap="round" stroke-linejoin="round" stroke-width=".5" color="#000" overflow="visible" ry=".478"/><text style="line-height:125%" x="489.712" y="590.849" font-family="Helvetica" font-size="10" font-weight="400" letter-spacing="0" word-spacing="0"><tspan x="489.712" y="590.849" style="text-align:center" text-anchor="middle">根哈希</tspan></text><path fill="none" stroke="#000" stroke-linecap="round" stroke-linejoin="round" d="M435.423 635.276l37.378-36.325"/><path style="marker:none" d="M475.421 596.735l-.93 2.917-.928 2.918-2.062-2.264-2.062-2.263 2.99-.654z" color="#000" overflow="visible"/><rect style="marker:none" width="42.116" height="19.135" x="411.513" y="631.662" fill="#fff" stroke="#000" stroke-linecap="round" stroke-linejoin="round" stroke-width=".6" color="#000" overflow="visible" ry=".481"/><path fill="none" stroke="#000" stroke-linecap="round" stroke-linejoin="round" d="M525.343 644.497l-25.249-45.598"/><path style="marker:none" d="M498.228 596.019l.044 3.061.044 3.062 2.63-1.569 2.629-1.569-2.673-1.493z" color="#000" overflow="visible"/><text style="line-height:125%" x="432.929" y="644.892" font-family="Helvetica" font-size="10" font-weight="400" letter-spacing="0" word-spacing="0"><tspan x="432.929" y="644.892" style="text-align:center" text-anchor="middle">哈希01</tspan></text><rect style="marker:none" width="42.116" height="19.135" x="500.932" y="631.662" fill="#fff" stroke="#000" stroke-dasharray="1.8 1.8" stroke-linecap="round" stroke-linejoin="round" stroke-width=".6" color="#000" overflow="visible" ry=".481"/><text style="line-height:125%" x="522.348" y="644.892" font-family="Helvetica" font-size="10" font-weight="400" letter-spacing="0" word-spacing="0"><tspan x="522.348" y="644.892" style="text-align:center" text-anchor="middle">哈希23</tspan></text><path fill="none" stroke="#000" stroke-linecap="round" stroke-linejoin="round" d="M499.443 678.973l11.925-25.174"/><path style="marker:none" d="M512.95 650.753l.248 3.052.249 3.052-2.767-1.311-2.767-1.31 2.518-1.742z" color="#000" overflow="visible"/><path fill="none" stroke="#000" stroke-linecap="round" stroke-linejoin="round" d="M542.947 678.973L531.022 653.8"/><path style="marker:none" d="M529.44 650.753l-.248 3.052-.249 3.052 2.767-1.311 2.767-1.31-2.518-1.742z" color="#000" overflow="visible"/><rect style="marker:none" width="35.347" height="19.185" x="481.462" y="677.6" fill="#fff" stroke="#000" stroke-linecap="round" stroke-linejoin="round" stroke-width=".55" color="#000" overflow="visible" ry=".482"/><text style="line-height:125%" x="499.62" y="690.854" font-family="Helvetica" font-size="10" font-weight="400" letter-spacing="0" word-spacing="0"><tspan x="499.62" y="690.854" style="text-align:center" text-anchor="middle">哈希2</tspan></text><rect style="marker:none" width="35.347" height="19.185" x="525.151" y="677.6" fill="#fff" stroke="#000" stroke-dasharray="1.651 1.651" stroke-linecap="round" stroke-linejoin="round" stroke-width=".55" color="#000" overflow="visible" ry=".482"/><text style="line-height:125%" x="543.309" y="690.854" font-family="Helvetica" font-size="10" font-weight="400" letter-spacing="0" word-spacing="0"><tspan x="543.309" y="690.854" style="text-align:center" text-anchor="middle">哈希3</tspan></text><g><path fill="none" stroke="#000" stroke-linecap="round" stroke-linejoin="round" d="M542.248 728.091v-27.856"/><path style="marker:none" d="M542.374 696.806l1.531 2.651 1.531 2.652H539.313l1.53-2.652z" color="#000" overflow="visible"/></g><rect style="marker:none" width="35.347" height="19.185" x="525.151" y="721.6" fill="#fff" stroke="#000" stroke-linecap="round" stroke-linejoin="round" stroke-width=".55" color="#000" overflow="visible" ry=".482"/><text style="line-height:125%" x="543.309" y="734.854" font-family="Helvetica" font-size="10" font-weight="400" letter-spacing="0" word-spacing="0"><tspan x="543.309" y="734.854" style="text-align:center" text-anchor="middle">Tx3</tspan></text><text style="line-height:125%" x="477.59" y="767.625" font-family="Helvetica" font-size="10" font-weight="400" letter-spacing="0" word-spacing="0"><tspan x="477.59" y="767.625" style="text-align:center" text-anchor="middle">从区块里剪除 Tx0-2 之后</tspan></text></g></svg>