<svg xmlns="http://www.w3.org/2000/svg" xmlns:xlink="http://www.w3.org/1999/xlink" width="1016.973" height="401.305"><defs><linearGradient id="c" x1="558.56" x2="618.268" y1="112.415" y2="112.415" gradientTransform="matrix(.81346 0 0 .10434 118.314 542.386)" gradientUnits="userSpaceOnUse" spreadMethod="pad" xlink:href="#a"/><linearGradient id="a"><stop offset="0" stop-color="#fff" stop-opacity="0"/><stop offset=".5" stop-color="#fff"/><stop offset="1" stop-color="#fff"/></linearGradient><linearGradient id="d" x1="558.56" x2="618.268" y1="112.415" y2="112.415" gradientTransform="matrix(.65798 0 0 .10434 -453.25 542.426)" gradientUnits="userSpaceOnUse" spreadMethod="pad" xlink:href="#b"/><linearGradient id="b"><stop offset="0" stop-color="#fff" stop-opacity="0"/><stop offset=".5" stop-color="#fff"/><stop offset="1" stop-color="#fff"/></linearGradient></defs><g transform="translate(719.057 -161.354)"><rect width="1016.973" height="401.305" x="-719.057" y="161.354" overflow="visible" ry=".907" style="marker:none" fill="#fff" color="#000"/><g transform="translate(-774.386 -702.933) scale(1.69728)"><path fill="none" stroke="#000" stroke-linecap="round" stroke-linejoin="round" d="M531.404 554.05h67.252"/><g transform="translate(183.343 46.467)"><rect width="131.306" height="71.202" x="247.242" y="477.083" stroke="#000" stroke-linecap="round" overflow="visible" ry=".091" style="marker:none" fill="#dfedff" stroke-linejoin="round" stroke-width="1.014" color="#000"/><text x="280.57" y="489.178" style="text-align:center;line-height:125%" font-family="Helvetica" font-size="10" font-weight="400" letter-spacing="0" text-anchor="middle" word-spacing="0"><tspan x="280.57" y="489.178" style="-inkscape-font-specification:Helvetica Bold" font-size="8" font-weight="700">区块头</tspan></text><rect width="60.698" height="19.03" x="258.49" y="498.876" stroke="#000" stroke-linecap="round" overflow="visible" ry=".478" style="marker:none" fill="#fff" stroke-linejoin="round" stroke-width=".5" color="#000"/><text x="288.944" y="512.053" style="line-height:125%" font-family="Helvetica" font-size="10" font-weight="400" letter-spacing="0" word-spacing="0"><tspan x="288.944" y="512.053" style="text-align:center" text-anchor="middle">前哈希</tspan></text><rect width="36.596" height="19.171" x="323.632" y="498.805" stroke="#000" stroke-linecap="round" overflow="visible" ry=".482" style="marker:none" fill="#fff" stroke-linejoin="round" stroke-width=".5" color="#000"/><text x="341.531" y="512.053" style="line-height:125%" font-family="Helvetica" font-size="10" font-weight="400" letter-spacing="0" word-spacing="0"><tspan x="341.531" y="512.053" style="text-align:center" text-anchor="middle">随机数</tspan></text><rect width="63.717" height="19.018" x="278.699" y="523.126" stroke="#000" stroke-linecap="round" overflow="visible" ry=".478" style="marker:none" fill="#fff" stroke-linejoin="round" stroke-width=".5" color="#000"/><text x="310.663" y="536.296" style="line-height:125%" font-family="Helvetica" font-size="10" font-weight="400" letter-spacing="0" word-spacing="0"><tspan x="310.663" y="536.296" style="text-align:center" text-anchor="middle">Merkle 树根</tspan></text></g><path fill="none" stroke="#000" stroke-linecap="round" stroke-linejoin="round" d="M371.404 554.05h67.252"/><path d="M442.086 554.175l-2.652 1.531-2.651 1.531v-6.123l2.651 1.53z" style="marker:none" color="#000" overflow="visible"/><g transform="translate(27.78 46.467)"><rect width="131.306" height="71.202" x="247.242" y="477.083" stroke="#000" stroke-linecap="round" overflow="visible" ry=".091" style="marker:none" fill="#dfedff" stroke-linejoin="round" stroke-width="1.014" color="#000"/><text x="280.57" y="489.178" style="text-align:center;line-height:125%" font-family="Helvetica" font-size="10" font-weight="400" letter-spacing="0" text-anchor="middle" word-spacing="0"><tspan x="280.57" y="489.178" style="-inkscape-font-specification:Helvetica Bold" font-size="8" font-weight="700">区块头</tspan></text><rect width="60.698" height="19.03" x="258.49" y="498.876" stroke="#000" stroke-linecap="round" overflow="visible" ry=".478" style="marker:none" fill="#fff" stroke-linejoin="round" stroke-width=".5" color="#000"/><text x="288.944" y="512.053" style="line-height:125%" font-family="Helvetica" font-size="10" font-weight="400" letter-spacing="0" word-spacing="0"><tspan x="288.944" y="512.053" style="text-align:center" text-anchor="middle">前哈希</tspan></text><rect width="36.596" height="19.171" x="323.632" y="498.805" stroke="#000" stroke-linecap="round" overflow="visible" ry=".482" style="marker:none" fill="#fff" stroke-linejoin="round" stroke-width=".5" color="#000"/><text x="341.531" y="512.053" style="line-height:125%" font-family="Helvetica" font-size="10" font-weight="400" letter-spacing="0" word-spacing="0"><tspan x="341.531" y="512.053" style="text-align:center" text-anchor="middle">随机数</tspan></text><rect width="63.717" height="19.018" x="278.699" y="523.126" stroke="#000" stroke-linecap="round" overflow="visible" ry=".478" style="marker:none" fill="#fff" stroke-linejoin="round" stroke-width=".5" color="#000"/><text x="310.663" y="536.296" style="line-height:125%" font-family="Helvetica" font-size="10" font-weight="400" letter-spacing="0" word-spacing="0"><tspan x="310.663" y="536.296" style="text-align:center" text-anchor="middle">Merkle 树根</tspan></text></g><path fill="none" stroke="#000" stroke-linecap="round" stroke-linejoin="round" d="M282.637 627.19l37.378-36.324"/><path d="M322.636 588.65l-.93 2.917-.93 2.917-2.061-2.263-2.062-2.264 2.991-.654z" style="marker:none" color="#000" overflow="visible"/><rect width="42.116" height="19.135" x="258.728" y="623.577" stroke="#000" stroke-linecap="round" overflow="visible" ry=".481" style="marker:none" fill="#fff" stroke-linejoin="round" stroke-width=".6" color="#000"/><path fill="none" stroke="#000" stroke-linecap="round" stroke-linejoin="round" d="M372.557 636.411l-25.249-45.597"/><path d="M345.443 587.933l.044 3.062.044 3.062 2.629-1.57 2.63-1.568-2.674-1.493z" style="marker:none" color="#000" overflow="visible"/><text x="280.144" y="636.806" style="line-height:125%" font-family="Helvetica" font-size="10" font-weight="400" letter-spacing="0" word-spacing="0"><tspan x="280.144" y="636.806" style="text-align:center" text-anchor="middle">哈希01</tspan></text><rect width="42.116" height="19.135" x="348.146" y="623.577" stroke="#000" stroke-dasharray="1.8 1.8" stroke-linecap="round" ry=".481" style="marker:none" fill="#fff" stroke-linejoin="round" stroke-width=".6" color="#000" overflow="visible"/><text x="369.562" y="636.806" style="line-height:125%" font-family="Helvetica" font-size="10" font-weight="400" letter-spacing="0" word-spacing="0"><tspan x="369.562" y="636.806" style="text-align:center" text-anchor="middle">哈希23</tspan></text><path fill="none" stroke="#000" stroke-linecap="round" stroke-linejoin="round" d="M346.658 670.888l11.924-25.175"/><path d="M360.164 642.668l.249 3.051.248 3.052-2.767-1.31-2.767-1.311 2.519-1.741z" style="marker:none" color="#000" overflow="visible"/><path fill="none" stroke="#000" stroke-linecap="round" stroke-linejoin="round" d="M390.161 670.888l-11.924-25.175"/><path d="M376.654 642.668l-.248 3.051-.248 3.052 2.767-1.31 2.767-1.311-2.519-1.741z" style="marker:none" color="#000" overflow="visible"/><rect width="35.347" height="19.185" x="328.676" y="669.514" stroke="#000" stroke-linecap="round" overflow="visible" ry=".482" style="marker:none" fill="#fff" stroke-linejoin="round" stroke-width=".55" color="#000"/><text x="346.834" y="682.768" style="line-height:125%" font-family="Helvetica" font-size="10" font-weight="400" letter-spacing="0" word-spacing="0"><tspan x="346.834" y="682.768" style="text-align:center" text-anchor="middle">哈希2</tspan></text><rect width="35.347" height="19.185" x="372.365" y="669.514" stroke="#000" stroke-dasharray="1.651 1.651" stroke-linecap="round" ry=".482" style="marker:none" fill="#fff" stroke-linejoin="round" stroke-width=".55" color="#000" overflow="visible"/><text x="390.523" y="682.768" style="line-height:125%" font-family="Helvetica" font-size="10" font-weight="400" letter-spacing="0" word-spacing="0"><tspan x="390.523" y="682.768" style="text-align:center" text-anchor="middle">哈希3</tspan></text><path fill="none" stroke="#000" stroke-linecap="round" stroke-linejoin="round" d="M389.463 720.006V692.15"/><path d="M389.589 688.72l1.53 2.652 1.532 2.651h-6.124l1.531-2.651z" style="marker:none" color="#000" overflow="visible"/><rect width="35.347" height="19.185" x="372.365" y="713.514" stroke="#000" stroke-linecap="round" overflow="visible" ry=".482" style="marker:none" fill="#fff" stroke-linejoin="round" stroke-width=".55" color="#000"/><text x="390.523" y="726.768" style="line-height:125%" font-family="Helvetica" font-size="10" font-weight="400" letter-spacing="0" word-spacing="0"><tspan x="390.523" y="726.768" style="text-align:center" text-anchor="middle">Tx3</tspan></text><text x="454.609" y="658.525" style="line-height:125%" font-family="Helvetica" font-size="10" font-weight="400" letter-spacing="0" word-spacing="0"><tspan x="454.609" y="658.525" style="text-align:center" text-anchor="middle">Tx3 的 Merkle 树枝</tspan></text><rect width="48.57" height="19.722" x="572.682" y="544.255" overflow="visible" ry=".086" style="marker:none" fill="url(#c)" color="#000"/><path fill="none" stroke="#000" stroke-linecap="round" stroke-linejoin="round" d="M215.404 554.05h67.252"/><path d="M286.086 554.175l-2.652 1.531-2.651 1.531v-6.123l2.651 1.53z" style="marker:none" color="#000" overflow="visible"/><g transform="translate(-130.31 46.467)"><rect width="131.306" height="71.202" x="247.242" y="477.083" stroke="#000" stroke-linecap="round" overflow="visible" ry=".091" style="marker:none" fill="#dfedff" stroke-linejoin="round" stroke-width="1.014" color="#000"/><text x="280.57" y="489.178" style="text-align:center;line-height:125%" font-family="Helvetica" font-size="10" font-weight="400" letter-spacing="0" text-anchor="middle" word-spacing="0"><tspan x="280.57" y="489.178" style="-inkscape-font-specification:Helvetica Bold" font-size="8" font-weight="700">区块头</tspan></text><rect width="60.698" height="19.03" x="258.49" y="498.876" stroke="#000" stroke-linecap="round" overflow="visible" ry=".478" style="marker:none" fill="#fff" stroke-linejoin="round" stroke-width=".5" color="#000"/><text x="288.944" y="512.053" style="line-height:125%" font-family="Helvetica" font-size="10" font-weight="400" letter-spacing="0" word-spacing="0"><tspan x="288.944" y="512.053" style="text-align:center" text-anchor="middle">前哈希</tspan></text><rect width="36.596" height="19.171" x="323.632" y="498.805" stroke="#000" stroke-linecap="round" overflow="visible" ry=".482" style="marker:none" fill="#fff" stroke-linejoin="round" stroke-width=".5" color="#000"/><text x="341.531" y="512.053" style="line-height:125%" font-family="Helvetica" font-size="10" font-weight="400" letter-spacing="0" word-spacing="0"><tspan x="341.531" y="512.053" style="text-align:center" text-anchor="middle">随机数</tspan></text><rect width="63.717" height="19.018" x="278.699" y="523.126" stroke="#000" stroke-linecap="round" overflow="visible" ry=".478" style="marker:none" fill="#fff" stroke-linejoin="round" stroke-width=".5" color="#000"/><text x="310.663" y="536.296" style="line-height:125%" font-family="Helvetica" font-size="10" font-weight="400" letter-spacing="0" word-spacing="0"><tspan x="310.663" y="536.296" style="text-align:center" text-anchor="middle">Merkle 树根</tspan></text></g><path fill="none" stroke="#000" stroke-linecap="round" stroke-linejoin="round" d="M57.404 554.05h67.252"/><path d="M128.086 554.175l-2.652 1.531-2.651 1.531v-6.123l2.651 1.53z" style="marker:none" color="#000" overflow="visible"/><rect width="39.287" height="19.722" x="-85.727" y="544.295" fill="url(#d)" color="#000" overflow="visible" ry=".086" transform="scale(-1 1)" style="marker:none"/></g></g></svg>