<svg xmlns="http://www.w3.org/2000/svg" xmlns:xlink="http://www.w3.org/1999/xlink" width="738.848" height="410.68"><defs><linearGradient id="c" x1="558.56" x2="618.268" y1="112.415" y2="112.415" gradientTransform="matrix(.83082 0 0 1 89.397 32.143)" gradientUnits="userSpaceOnUse" spreadMethod="pad" xlink:href="#a"/><linearGradient id="a"><stop offset="0" stop-color="#fff" stop-opacity="0"/><stop offset=".5" stop-color="#fff"/><stop offset="1" stop-color="#fff"/></linearGradient><linearGradient id="d" x1="558.56" x2="618.268" y1="112.415" y2="112.415" gradientTransform="matrix(.75103 0 0 1 -639.403 32.143)" gradientUnits="userSpaceOnUse" spreadMethod="pad" xlink:href="#b"/><linearGradient id="b"><stop offset="0" stop-color="#fff" stop-opacity="0"/><stop offset=".5" stop-color="#fff"/><stop offset="1" stop-color="#fff"/></linearGradient></defs><g transform="translate(901.584 -63.254)"><rect width="738.848" height="410.68" x="-901.584" y="63.254" overflow="visible" ry=".928" style="marker:none" fill="#fff" color="#000"/><g transform="translate(-1194.005 21.377) scale(1.69728)"><rect width="84.547" height="150.712" x="464.861" y="43.19" stroke="#000" stroke-linejoin="round" ry=".776" style="marker:none" fill="#ededed" stroke-linecap="round" color="#000" overflow="visible"/><text x="471.022" y="57.18" style="line-height:125%" font-family="Helvetica" font-size="10" font-weight="400" letter-spacing="0" word-spacing="0"><tspan x="471.022" y="57.18" style="-inkscape-font-specification:Helvetica Bold" font-weight="700">交易</tspan></text><path fill="none" stroke="#000" stroke-linecap="round" stroke-linejoin="round" d="M429.858 102.637h69.195v9.344"/><path d="M499.053 114.254l-1.53-2.652-1.532-2.652h6.124l-1.53 2.652z" style="marker:none" color="#000" overflow="visible"/><path fill="none" stroke="#000" stroke-linecap="round" stroke-linejoin="round" d="M513.809 85.311v26.309"/><path d="M513.682 114.271l-1.53-2.651-1.532-2.652h6.124l-1.53 2.652z" style="marker:none" color="#000" overflow="visible"/><path fill="none" stroke="#000" stroke-linecap="round" stroke-linejoin="round" d="M506.555 122.775v26.308"/><path d="M506.429 151.735l-1.531-2.652-1.531-2.651h6.123l-1.53 2.651z" style="marker:none" color="#000" overflow="visible"/><rect width="73.741" height="32.83" x="470.264" y="62.988" stroke="#000" stroke-linecap="round" overflow="visible" ry=".825" style="marker:none" fill="#fff" stroke-linejoin="round" stroke-width=".5" color="#000"/><text x="506.735" y="76.12" style="line-height:125%" font-family="Helvetica" font-size="10" font-weight="400" letter-spacing="0" word-spacing="0"><tspan x="506.735" y="76.12" style="text-align:center" text-anchor="middle">所有者 1 的</tspan><tspan x="506.735" y="88.62" style="text-align:center" text-anchor="middle">公钥</tspan></text><rect width="60.144" height="34.132" x="476.558" y="151.609" stroke="#000" stroke-linecap="round" overflow="visible" ry=".858" style="marker:none" fill="#fff" stroke-linejoin="round" stroke-width=".5" color="#000"/><text x="506.23" y="166.024" style="line-height:125%" font-family="Helvetica" font-size="10" font-weight="400" letter-spacing="0" word-spacing="0"><tspan x="506.23" y="166.024" style="text-align:center" text-anchor="middle">所有者 0 的</tspan><tspan x="506.23" y="178.524" style="text-align:center" text-anchor="middle">签名</tspan></text><rect width="36.596" height="19.171" x="488.331" y="114.138" stroke="#000" stroke-linecap="round" overflow="visible" ry=".482" style="marker:none" fill="#fff" stroke-linejoin="round" stroke-width=".5" color="#000"/><text x="506.23" y="127.386" style="line-height:125%" font-family="Helvetica" font-size="10" font-weight="400" letter-spacing="0" word-spacing="0"><tspan x="506.23" y="127.386" style="text-align:center" text-anchor="middle">哈希</tspan></text><rect width="73.741" height="32.83" x="470.598" y="214.695" stroke="#000" stroke-linecap="round" overflow="visible" ry=".825" style="marker:none" fill="#ffe3e2" stroke-linejoin="round" stroke-width=".5" color="#000"/><text x="507.069" y="227.827" style="line-height:125%" font-family="Helvetica" font-size="10" font-weight="400" letter-spacing="0" word-spacing="0"><tspan x="507.069" y="227.827" style="text-align:center" text-anchor="middle">所有者 3 的</tspan><tspan x="507.069" y="240.327" style="text-align:center" text-anchor="middle">私钥</tspan></text><rect width="84.547" height="150.712" x="464.861" y="43.19" stroke="#000" stroke-linejoin="round" ry=".776" style="marker:none" fill="#ededed" stroke-linecap="round" color="#000" overflow="visible"/><text x="471.022" y="57.18" style="line-height:125%" font-family="Helvetica" font-size="10" font-weight="400" letter-spacing="0" word-spacing="0"><tspan x="471.022" y="57.18" style="-inkscape-font-specification:Helvetica Bold" font-weight="700">交易</tspan></text><path fill="none" stroke="#000" stroke-linecap="round" stroke-linejoin="round" d="M429.858 102.637h69.195v9.344"/><path d="M499.053 114.253l-1.53-2.651-1.532-2.652h6.124l-1.53 2.652z" style="marker:none" color="#000" overflow="visible"/><path fill="none" stroke="#000" stroke-linecap="round" stroke-linejoin="round" d="M513.809 85.311v26.309"/><path d="M513.682 114.271l-1.53-2.651-1.532-2.652h6.124l-1.53 2.652z" style="marker:none" color="#000" overflow="visible"/><path fill="none" stroke="#000" stroke-linecap="round" stroke-linejoin="round" d="M506.555 122.775v26.308"/><path d="M506.429 151.735l-1.531-2.652-1.531-2.651h6.123l-1.53 2.651z" style="marker:none" color="#000" overflow="visible"/><rect width="73.741" height="32.83" x="470.264" y="62.988" stroke="#000" stroke-linecap="round" overflow="visible" ry=".825" style="marker:none" fill="#ffe3e2" stroke-linejoin="round" stroke-width=".5" color="#000"/><text x="506.735" y="76.12" style="line-height:125%" font-family="Helvetica" font-size="10" font-weight="400" letter-spacing="0" word-spacing="0"><tspan x="506.735" y="76.12" style="text-align:center" text-anchor="middle">所有者 3 的</tspan><tspan x="506.735" y="88.62" style="text-align:center" text-anchor="middle">公钥</tspan></text><rect width="60.144" height="34.132" x="476.558" y="151.609" stroke="#000" stroke-linecap="round" overflow="visible" ry=".858" style="marker:none" fill="#d2ffc5" stroke-linejoin="round" stroke-width=".5" color="#000"/><text x="506.23" y="166.024" style="line-height:125%" font-family="Helvetica" font-size="10" font-weight="400" letter-spacing="0" word-spacing="0"><tspan x="506.23" y="166.024" style="text-align:center" text-anchor="middle">所有者 2 的</tspan><tspan x="506.23" y="178.524" style="text-align:center" text-anchor="middle">签名</tspan></text><rect width="36.596" height="19.171" x="488.331" y="114.138" stroke="#000" stroke-linecap="round" overflow="visible" ry=".482" style="marker:none" fill="#fff" stroke-linejoin="round" stroke-width=".5" color="#000"/><text x="506.23" y="127.385" style="line-height:125%" font-family="Helvetica" font-size="10" font-weight="400" letter-spacing="0" word-spacing="0"><tspan x="506.23" y="127.385" style="text-align:center" text-anchor="middle">哈希</tspan></text><path fill="none" stroke="#000" stroke-dasharray="3 3" stroke-linecap="round" stroke-linejoin="round" d="M593.503 157.69l-57.832-31.315V95.818m58.419 84.581l-51.68 40.673"/><rect width="84.547" height="150.712" x="344.861" y="43.19" stroke="#000" stroke-linejoin="round" ry=".776" style="marker:none" fill="#ededed" stroke-linecap="round" color="#000" overflow="visible"/><text x="351.022" y="57.18" style="line-height:125%" font-family="Helvetica" font-size="10" font-weight="400" letter-spacing="0" word-spacing="0"><tspan x="351.022" y="57.18" style="-inkscape-font-specification:Helvetica Bold" font-weight="700">交易</tspan></text><path fill="none" stroke="#000" stroke-linecap="round" stroke-linejoin="round" d="M309.858 102.637h69.195v9.344"/><path d="M379.053 114.254l-1.53-2.652-1.532-2.652h6.124l-1.53 2.652z" style="marker:none" color="#000" overflow="visible"/><path fill="none" stroke="#000" stroke-linecap="round" stroke-linejoin="round" d="M393.809 85.311v26.309"/><path d="M393.682 114.271l-1.53-2.651-1.532-2.652h6.124l-1.53 2.652z" style="marker:none" color="#000" overflow="visible"/><path fill="none" stroke="#000" stroke-linecap="round" stroke-linejoin="round" d="M386.555 122.775v26.308"/><path d="M386.429 151.735l-1.531-2.652-1.531-2.651h6.123l-1.53 2.651z" style="marker:none" color="#000" overflow="visible"/><rect width="73.741" height="32.83" x="350.264" y="62.988" stroke="#000" stroke-linecap="round" overflow="visible" ry=".825" style="marker:none" fill="#fff" stroke-linejoin="round" stroke-width=".5" color="#000"/><text x="386.735" y="76.12" style="line-height:125%" font-family="Helvetica" font-size="10" font-weight="400" letter-spacing="0" word-spacing="0"><tspan x="386.735" y="76.12" style="text-align:center" text-anchor="middle">所有者 1 的</tspan><tspan x="386.735" y="88.62" style="text-align:center" text-anchor="middle">公钥</tspan></text><rect width="60.144" height="34.132" x="356.558" y="151.609" stroke="#000" stroke-linecap="round" overflow="visible" ry=".858" style="marker:none" fill="#fff" stroke-linejoin="round" stroke-width=".5" color="#000"/><text x="386.23" y="166.024" style="line-height:125%" font-family="Helvetica" font-size="10" font-weight="400" letter-spacing="0" word-spacing="0"><tspan x="386.23" y="166.024" style="text-align:center" text-anchor="middle">所有者 0 的</tspan><tspan x="386.23" y="178.524" style="text-align:center" text-anchor="middle">签名</tspan></text><rect width="36.596" height="19.171" x="368.331" y="114.138" stroke="#000" stroke-linecap="round" overflow="visible" ry=".482" style="marker:none" fill="#fff" stroke-linejoin="round" stroke-width=".5" color="#000"/><text x="386.23" y="127.386" style="line-height:125%" font-family="Helvetica" font-size="10" font-weight="400" letter-spacing="0" word-spacing="0"><tspan x="386.23" y="127.386" style="text-align:center" text-anchor="middle">哈希</tspan></text><rect width="73.741" height="32.83" x="350.598" y="214.695" stroke="#000" stroke-linecap="round" overflow="visible" ry=".825" style="marker:none" fill="#d2ffc5" stroke-linejoin="round" stroke-width=".5" color="#000"/><text x="387.069" y="227.827" style="line-height:125%" font-family="Helvetica" font-size="10" font-weight="400" letter-spacing="0" word-spacing="0"><tspan x="387.069" y="227.827" style="text-align:center" text-anchor="middle">所有者 2 的</tspan><tspan x="387.069" y="240.327" style="text-align:center" text-anchor="middle">私钥</tspan></text><rect width="84.547" height="150.712" x="344.861" y="43.19" stroke="#000" stroke-linejoin="round" ry=".776" style="marker:none" fill="#ededed" stroke-linecap="round" color="#000" overflow="visible"/><text x="351.022" y="57.18" style="line-height:125%" font-family="Helvetica" font-size="10" font-weight="400" letter-spacing="0" word-spacing="0"><tspan x="351.022" y="57.18" style="-inkscape-font-specification:Helvetica Bold" font-weight="700">交易</tspan></text><path fill="none" stroke="#000" stroke-linecap="round" stroke-linejoin="round" d="M309.858 102.637h69.195v9.344"/><path d="M379.053 114.253l-1.53-2.651-1.532-2.652h6.124l-1.53 2.652z" style="marker:none" color="#000" overflow="visible"/><path fill="none" stroke="#000" stroke-linecap="round" stroke-linejoin="round" d="M393.809 85.311v26.309"/><path d="M393.682 114.271l-1.53-2.651-1.532-2.652h6.124l-1.53 2.652z" style="marker:none" color="#000" overflow="visible"/><path fill="none" stroke="#000" stroke-linecap="round" stroke-linejoin="round" d="M386.555 122.775v26.308"/><path d="M386.429 151.735l-1.531-2.652-1.531-2.651h6.123l-1.53 2.651z" style="marker:none" color="#000" overflow="visible"/><rect width="73.741" height="32.83" x="350.264" y="62.988" stroke="#000" stroke-linecap="round" overflow="visible" ry=".825" style="marker:none" fill="#d2ffc5" stroke-linejoin="round" stroke-width=".5" color="#000"/><text x="386.735" y="76.12" style="line-height:125%" font-family="Helvetica" font-size="10" font-weight="400" letter-spacing="0" word-spacing="0"><tspan x="386.735" y="76.12" style="text-align:center" text-anchor="middle">所有者 2 的</tspan><tspan x="386.735" y="88.62" style="text-align:center" text-anchor="middle">公钥</tspan></text><rect width="60.144" height="34.132" x="356.558" y="151.609" stroke="#000" stroke-linecap="round" overflow="visible" ry=".858" style="marker:none" fill="#fff5c5" stroke-linejoin="round" stroke-width=".5" color="#000"/><text x="386.23" y="166.024" style="line-height:125%" font-family="Helvetica" font-size="10" font-weight="400" letter-spacing="0" word-spacing="0"><tspan x="386.23" y="166.024" style="text-align:center" text-anchor="middle">所有者 1 的</tspan><tspan x="386.23" y="178.524" style="text-align:center" text-anchor="middle">签名</tspan></text><rect width="36.596" height="19.171" x="368.331" y="114.138" stroke="#000" stroke-linecap="round" overflow="visible" ry=".482" style="marker:none" fill="#fff" stroke-linejoin="round" stroke-width=".5" color="#000"/><text x="386.23" y="127.385" style="line-height:125%" font-family="Helvetica" font-size="10" font-weight="400" letter-spacing="0" word-spacing="0"><tspan x="386.23" y="127.385" style="text-align:center" text-anchor="middle">哈希</tspan></text><path d="M473.406 153.939l1.531 2.651 1.53 2.652h-6.123l1.531-2.652z" style="marker:none" color="#000" overflow="visible"/><path fill="none" stroke="#000" stroke-dasharray="3 3" stroke-linecap="round" stroke-linejoin="round" d="M473.503 157.69l-57.832-31.315V95.818"/><path d="M474.63 184.112l1.06-2.873 1.058-2.873-3.017.52-3.018.52 1.959 2.353z" style="marker:none" color="#000" overflow="visible"/><path fill="none" stroke="#000" stroke-dasharray="3 3" stroke-linecap="round" stroke-linejoin="round" d="M474.09 180.399l-51.68 40.673"/><text x="458.752" y="-91.695" font-family="Helvetica" transform="rotate(28.469)" style="text-align:center;line-height:125%" font-size="10" font-weight="400" letter-spacing="0" text-anchor="middle" word-spacing="0"><tspan x="458.752" y="-91.695" font-size="8">确认</tspan></text><text x="229.343" y="432.174" font-family="Helvetica" transform="rotate(-38.686)" style="text-align:center;line-height:125%" font-size="10" font-weight="400" letter-spacing="0" text-anchor="middle" word-spacing="0"><tspan x="229.343" y="432.174" font-size="8">签署</tspan></text><rect width="84.547" height="150.712" x="224.861" y="43.19" stroke="#000" stroke-linejoin="round" ry=".776" style="marker:none" fill="#ededed" stroke-linecap="round" color="#000" overflow="visible"/><text x="231.022" y="57.18" style="line-height:125%" font-family="Helvetica" font-size="10" font-weight="400" letter-spacing="0" word-spacing="0"><tspan x="231.022" y="57.18" style="-inkscape-font-specification:Helvetica Bold" font-weight="700">交易</tspan></text><path fill="none" stroke="#000" stroke-linecap="round" stroke-linejoin="round" d="M189.858 102.637h69.195v9.344"/><path d="M259.053 114.254l-1.53-2.652-1.531-2.652h6.123l-1.53 2.652z" style="marker:none" color="#000" overflow="visible"/><path fill="none" stroke="#000" stroke-linecap="round" stroke-linejoin="round" d="M273.809 85.311v26.309"/><path d="M273.682 114.271l-1.53-2.651-1.532-2.652h6.124l-1.53 2.652z" style="marker:none" color="#000" overflow="visible"/><path fill="none" stroke="#000" stroke-linecap="round" stroke-linejoin="round" d="M266.555 122.775v26.308"/><path d="M266.429 151.735l-1.531-2.652-1.531-2.651h6.123l-1.53 2.651z" style="marker:none" color="#000" overflow="visible"/><rect width="73.741" height="32.83" x="230.264" y="62.988" stroke="#000" stroke-linecap="round" overflow="visible" ry=".825" style="marker:none" fill="#fff" stroke-linejoin="round" stroke-width=".5" color="#000"/><text x="266.735" y="76.12" style="line-height:125%" font-family="Helvetica" font-size="10" font-weight="400" letter-spacing="0" word-spacing="0"><tspan x="266.735" y="76.12" style="text-align:center" text-anchor="middle">所有者 1 的</tspan><tspan x="266.735" y="88.62" style="text-align:center" text-anchor="middle">公钥</tspan></text><rect width="60.144" height="34.132" x="236.558" y="151.609" stroke="#000" stroke-linecap="round" overflow="visible" ry=".858" style="marker:none" fill="#fff" stroke-linejoin="round" stroke-width=".5" color="#000"/><text x="266.23" y="166.024" style="line-height:125%" font-family="Helvetica" font-size="10" font-weight="400" letter-spacing="0" word-spacing="0"><tspan x="266.23" y="166.024" style="text-align:center" text-anchor="middle">所有者 0 的</tspan><tspan x="266.23" y="178.524" style="text-align:center" text-anchor="middle">签名</tspan></text><rect width="36.596" height="19.171" x="248.331" y="114.138" stroke="#000" stroke-linecap="round" overflow="visible" ry=".482" style="marker:none" fill="#fff" stroke-linejoin="round" stroke-width=".5" color="#000"/><text x="266.23" y="127.386" style="line-height:125%" font-family="Helvetica" font-size="10" font-weight="400" letter-spacing="0" word-spacing="0"><tspan x="266.23" y="127.386" style="text-align:center" text-anchor="middle">哈希</tspan></text><rect width="73.741" height="32.83" x="230.598" y="214.695" stroke="#000" stroke-linecap="round" overflow="visible" ry=".825" style="marker:none" fill="#fff5c5" stroke-linejoin="round" stroke-width=".5" color="#000"/><text x="267.069" y="227.827" style="line-height:125%" font-family="Helvetica" font-size="10" font-weight="400" letter-spacing="0" word-spacing="0"><tspan x="267.069" y="227.827" style="text-align:center" text-anchor="middle">所有者 1 的</tspan><tspan x="267.069" y="240.327" style="text-align:center" text-anchor="middle">私钥</tspan></text><rect width="84.547" height="150.712" x="224.861" y="43.19" stroke="#000" stroke-linejoin="round" ry=".776" style="marker:none" fill="#ededed" stroke-linecap="round" color="#000" overflow="visible"/><text x="231.022" y="57.18" style="line-height:125%" font-family="Helvetica" font-size="10" font-weight="400" letter-spacing="0" word-spacing="0"><tspan x="231.022" y="57.18" style="-inkscape-font-specification:Helvetica Bold" font-weight="700">交易</tspan></text><path fill="none" stroke="#000" stroke-linecap="round" stroke-linejoin="round" d="M189.858 102.637h69.195v9.344"/><path d="M259.053 114.253l-1.53-2.651-1.531-2.652h6.123l-1.53 2.652z" style="marker:none" color="#000" overflow="visible"/><path fill="none" stroke="#000" stroke-linecap="round" stroke-linejoin="round" d="M273.809 85.311v26.309"/><path d="M273.682 114.271l-1.53-2.651-1.532-2.652h6.124l-1.53 2.652z" style="marker:none" color="#000" overflow="visible"/><path fill="none" stroke="#000" stroke-linecap="round" stroke-linejoin="round" d="M266.555 122.775v26.308"/><path d="M266.429 151.735l-1.531-2.652-1.531-2.651h6.123l-1.53 2.651z" style="marker:none" color="#000" overflow="visible"/><rect width="73.741" height="32.83" x="230.264" y="62.988" stroke="#000" stroke-linecap="round" overflow="visible" ry=".825" style="marker:none" fill="#fff5c5" stroke-linejoin="round" stroke-width=".5" color="#000"/><text x="266.735" y="76.12" style="line-height:125%" font-family="Helvetica" font-size="10" font-weight="400" letter-spacing="0" word-spacing="0"><tspan x="266.735" y="76.12" style="text-align:center" text-anchor="middle">所有者 1 的</tspan><tspan x="266.735" y="88.62" style="text-align:center" text-anchor="middle">公钥</tspan></text><rect width="60.144" height="34.132" x="236.558" y="151.609" stroke="#000" stroke-linecap="round" overflow="visible" ry=".858" style="marker:none" fill="#d5f3ff" stroke-linejoin="round" stroke-width=".5" color="#000"/><text x="266.23" y="166.024" style="line-height:125%" font-family="Helvetica" font-size="10" font-weight="400" letter-spacing="0" word-spacing="0"><tspan x="266.23" y="166.024" style="text-align:center" text-anchor="middle">所有者 0 的</tspan><tspan x="266.23" y="178.524" style="text-align:center" text-anchor="middle">签名</tspan></text><rect width="36.596" height="19.171" x="248.331" y="114.138" stroke="#000" stroke-linecap="round" overflow="visible" ry=".482" style="marker:none" fill="#fff" stroke-linejoin="round" stroke-width=".5" color="#000"/><text x="266.23" y="127.385" style="line-height:125%" font-family="Helvetica" font-size="10" font-weight="400" letter-spacing="0" word-spacing="0"><tspan x="266.23" y="127.385" style="text-align:center" text-anchor="middle">哈希</tspan></text><path d="M353.406 153.939l1.531 2.651 1.53 2.652h-6.123l1.531-2.652z" style="marker:none" color="#000" overflow="visible"/><path fill="none" stroke="#000" stroke-dasharray="3 3" stroke-linecap="round" stroke-linejoin="round" d="M353.503 157.69l-57.832-31.315V95.818"/><path d="M354.63 184.112l1.06-2.873 1.058-2.873-3.017.52-3.018.52 1.959 2.353z" style="marker:none" color="#000" overflow="visible"/><path fill="none" stroke="#000" stroke-dasharray="3 3" stroke-linecap="round" stroke-linejoin="round" d="M354.09 180.399l-51.68 40.673"/><text x="353.264" y="-34.492" font-family="Helvetica" transform="rotate(28.469)" style="text-align:center;line-height:125%" font-size="10" font-weight="400" letter-spacing="0" text-anchor="middle" word-spacing="0"><tspan x="353.264" y="-34.492" font-size="8">确认</tspan></text><text x="135.673" y="357.167" font-family="Helvetica" transform="rotate(-38.686)" style="text-align:center;line-height:125%" font-size="10" font-weight="400" letter-spacing="0" text-anchor="middle" word-spacing="0"><tspan x="135.673" y="357.167" font-size="8">签署</tspan></text><path fill="none" stroke="#000" stroke-linecap="round" stroke-linejoin="round" stroke-width=".678" d="M549.588 102.637h31.854"/><rect width="49.606" height="189.008" x="553.458" y="50.054" overflow="visible" ry=".826" style="marker:none" fill="url(#c)" color="#000"/><path d="M233.406 153.939l1.531 2.651 1.53 2.652h-6.123l1.531-2.652z" style="marker:none" color="#000" overflow="visible"/><path fill="none" stroke="#000" stroke-dasharray="3 3" stroke-linecap="round" stroke-linejoin="round" d="M233.503 157.69l-57.832-31.315"/><path d="M234.63 184.112l1.06-2.873 1.058-2.873-3.017.52-3.018.52 1.959 2.353z" style="marker:none" color="#000" overflow="visible"/><path fill="none" stroke="#000" stroke-dasharray="3 3" stroke-linecap="round" stroke-linejoin="round" d="M234.09 180.399l-51.68 40.673"/><rect width="44.843" height="189.008" x="-219.905" y="50.054" fill="url(#d)" color="#000" overflow="visible" ry=".826" transform="scale(-1 1)" style="marker:none"/></g></g></svg>